<svg xmlns="http://www.w3.org/2000/svg" viewBox="0 0 39.85 39.98"><defs><style>.cls-1{fill:#231815;}.cls-2{fill:#fff;fill-rule:evenodd;}</style></defs><g id="レイヤー_2" data-name="レイヤー 2"><g id="Layer_1" data-name="Layer 1"><rect class="cls-1" width="39.85" height="39.98"/><path class="cls-2" d="M19.92,4.1a16.29,16.29,0,0,0-5.14,31.75c.81.15,1.11-.36,1.11-.79s0-1.41,0-2.77c-4.53,1-5.49-2.18-5.49-2.18a4.3,4.3,0,0,0-1.81-2.38c-1.48-1,.11-1,.11-1a3.41,3.41,0,0,1,2.5,1.67,3.48,3.48,0,0,0,4.74,1.36,3.51,3.51,0,0,1,1-2.18c-3.61-.41-7.42-1.81-7.42-8a6.3,6.3,0,0,1,1.68-4.37,5.82,5.82,0,0,1,.16-4.31s1.37-.44,4.48,1.67a15.37,15.37,0,0,1,8.15,0c3.11-2.11,4.48-1.67,4.48-1.67a5.82,5.82,0,0,1,.16,4.31,6.26,6.26,0,0,1,1.68,4.37c0,6.26-3.81,7.63-7.44,8a3.88,3.88,0,0,1,1.1,3c0,2.18,0,3.94,0,4.47s.3.94,1.12.79A16.3,16.3,0,0,0,19.92,4.1Z"/></g></g></svg>