<svg xmlns="http://www.w3.org/2000/svg" viewBox="0 0 300 300"><defs><style>.cls-1{fill:#55c500;}.cls-2{fill:#fff;}</style></defs><g id="レイヤー_2" data-name="レイヤー 2"><g id="favicon"><rect class="cls-1" width="300" height="300"/><path class="cls-2" d="M206.33,209.9c-12.5,13.33-29.49,17.72-50.05,19.8-41.63,4.21-77.7-14.38-82.07-60.84A91,91,0,0,1,85.61,115L80.45,94.66a5,5,0,0,1,5.85-6l17.83,4.33a70.08,70.08,0,0,1,37.56-15.82,68.94,68.94,0,0,1,34.49,5.43l16.75-10.13a5,5,0,0,1,7.45,4l1,23.9h0A89.38,89.38,0,0,1,225,153.61c1.12,11.92-.11,21-3.27,29.73-1.48,4.07-1.93,7.51.75,10.92s6.67,9.68,11.24,8.61c6.87-1.61,14.22-1.18,18.76,1.65a116,116,0,1,0-18.81,25.93,27.19,27.19,0,0,1-11.08-4.39C215.67,221.46,209.55,217.12,206.33,209.9Z"/><path class="cls-2" d="M195.63,124.93l10.83-1.33-.16-1.95L195.2,123c-.48-1.4-1-2.77-1.61-4.11l12.23-3.9-.38-2.45-13,4.51c-8.73-18.3-27.6-29.41-49-27.25A50.22,50.22,0,0,0,100.07,127l-12.72-1.93-.14,2.5,12.53,1.36a36.47,36.47,0,0,0-.83,3.79L88,133.57l.1,2,10.65-.85a40,40,0,0,0-.32,4.4l-9.73,4,.48,2.42,9.27-4.34c0,1.29.07,2,.2,3.29,2.57,27.4,25.46,32.82,52.8,30s48.79-12.66,46.21-40.06c-.12-1.32-.31-2-.53-3.28l10,2.18.23-2.21-10.53-2A38.66,38.66,0,0,0,195.63,124.93Z"/></g></g></svg>