<svg xmlns="http://www.w3.org/2000/svg" xmlns:xlink="http://www.w3.org/1999/xlink" viewBox="0 0 1260.12 1260.12"><defs><style>.cls-1{fill:url(#名称未設定グラデーション);}.cls-2{fill:#fff;}</style><linearGradient id="名称未設定グラデーション" x1="630.06" y1="1225.83" x2="630.06" y2="25.15" gradientUnits="userSpaceOnUse"><stop offset="0" stop-color="#f80"/><stop offset="1" stop-color="#f30"/></linearGradient></defs><g id="レイヤー_2" data-name="レイヤー 2"><g id="レイヤー_1-2" data-name="レイヤー 1"><rect class="cls-1" width="1260.12" height="1260.12" transform="translate(1260.12 1260.12) rotate(180)"/><path class="cls-2" d="M127.75,808.64q0,18.71,13.56,28.28t29,6.78q14.49-2.81,20.34-10.28t5.84-24.78V673.07a34.32,34.32,0,0,0-34.59-34.59,32.82,32.82,0,0,0-24.08,10,33.39,33.39,0,0,0-10.05,24.54Zm107.52,58q0,13.56,9.58,20.33t24.55,6.78q15.42,0,25-6.78T304,866.61v-316a32.85,32.85,0,0,0-10.05-24.08,33.39,33.39,0,0,0-24.54-10,34.31,34.31,0,0,0-34.13,34.13Zm107,15q0,13.56,9.82,20.33t25.25,6.78q15,0,24.54-6.78t9.58-20.33V593.13a34.19,34.19,0,0,0-10.05-24.78,32.48,32.48,0,0,0-24.07-10.28,35.1,35.1,0,0,0-35.06,35.06V881.57ZM449.85,883q0,25.71,34.59,25.71T519,883V415.49q0-39.27-23.84-44.42-15.42-3.74-30.39,8.89t-14.95,35.53V883Zm109.39,13.56V387.9q0-24.3,14.49-29a266.78,266.78,0,0,1,62.18-7.48q71.52,0,133.23,33.66A274.49,274.49,0,0,1,869,477q38.1,58.2,44.17,128.32a153.42,153.42,0,0,1,60.78-12.15q65.45,0,112,46.28t46.51,111.26q0,65.46-46.51,111.73t-111.5,46.28l-406.71-.46a11,11,0,0,1-6.31-5.15,13.8,13.8,0,0,1-2.1-6.54Z"/></g></g></svg>